<?xml version="1.0" encoding="UTF-8"?>
<svg width="16px" height="16px" viewBox="0 0 16 16" version="1.1" xmlns="http://www.w3.org/2000/svg" xmlns:xlink="http://www.w3.org/1999/xlink">
    <title>Group 5</title>
    <g id="Page-1" stroke="none" stroke-width="1" fill="none" fill-rule="evenodd">
        <g id="Group-5">
            <g id="Group-2-Copy-5" transform="translate(1.000000, 0.000000)" fill-rule="nonzero">
                <path d="M13.9206121,-8.54788254e-16 C12.1696568,0.0869455804 10.0329518,1.15357973 8.7959045,2.64878918 C7.6851673,3.92920529 6.7020737,6.01925365 6.95836521,7.98326632 C13.9206121,-8.54788254e-16 6.95836521,7.98326632 13.9206121,-8.54788254e-16 Z" id="Path-Copy-3"></path>
                <path d="M6.99956517,7.98326632 C5.24860982,8.0702119 3.11190482,9.13684606 1.87485753,10.6320555 C0.764120342,11.9124716 -0.215091544,14.0192537 0.0411999619,15.9832663 C7.00344689,8 0.0373182421,15.9665326 6.99956517,7.98326632 Z" id="Path-Copy-2" fill="#888888" transform="translate(3.499783, 11.983266) scale(-1, -1) translate(-3.499783, -11.983266) "></path>
                <path d="M13.9206121,-8.54788254e-16 C12.1696568,0.0869455804 10.0329518,1.15357973 8.7959045,2.64878918 C7.6851673,3.92920529 6.7020737,6.01925365 6.95836521,7.98326632 C13.9206121,-8.54788254e-16 6.95836521,7.98326632 13.9206121,-8.54788254e-16 Z" id="Path-Copy" fill="#888888"></path>
            </g>
            <rect id="Rectangle" x="0" y="0" width="16" height="16"></rect>
        </g>
    </g>
</svg>