<svg width="15px" height="19px" viewBox="0 0 15 19" version="1.1" xmlns="http://www.w3.org/2000/svg">
    <path d="M2.77035725,18 L11.5728313,18 C12.4876369,18 13.1795018,17.7626785 13.648426,17.2880356 C14.1173357,16.8133939 14.3517906,16.1156954 14.3517906,15.1949401 L14.3517906,7.93436737 L8.09943,7.93436737 C7.02886975,7.93436737 6.49358963,7.39908724 6.49358963,6.328527 L6.49358963,0 L2.77035725,0 C1.85545054,0 1.16499333,0.237320755 0.698985603,0.711962265 C0.232995201,1.18660378 3.84699328e-16,1.88430153 3.84699328e-16,2.80505553 L3.84699328e-16,15.1949401 C3.84699328e-16,16.1214233 0.232995201,16.820554 0.698985603,17.2923322 C1.16499333,17.7641107 1.85545054,18 2.77035725,18 Z M8.23837904,6.63418892 L14.2642327,6.63418892 C14.2397752,6.42544772 14.1577615,6.21841739 14.0181916,6.01309794 C13.8786362,5.80777849 13.6897324,5.58599277 13.4514804,5.34774078 L9.07246314,0.890737885 C8.84511166,0.657539112 8.62764283,0.470035863 8.42005665,0.32822814 C8.21247047,0.186405978 8.00364987,0.100400215 7.79359483,0.0702108491 L7.79359483,6.19137546 C7.79359483,6.48658443 7.94185623,6.63418892 8.23837904,6.63418892 Z" id="Shape" />
</svg>
