<svg width="19px" height="15px" viewBox="0 0 19 15" version="1.1" xmlns="http://www.w3.org/2000/svg">
    <path d="M0,12.3265634 C0,13.2067387 0.227577818,13.8723551 0.682733453,14.3234127 C1.13789186,14.7744709 1.80695048,15 2.68990933,15 L15.8845742,15 C16.6566198,15 17.2577611,14.7744709 17.6879983,14.3234127 C18.1182217,13.8723551 18.3333333,13.2067387 18.3333333,12.3265634 L18.3333333,6.04501529 L0,6.04501529 L0,12.3265634 Z M0,4.78436794 L18.3333333,4.78436794 L18.3333333,4.13456411 C18.3333333,3.25438053 18.1071317,2.5901593 17.6547285,2.14190043 C17.2023114,1.69365544 16.5319306,1.46953295 15.643586,1.46953295 L8.2983885,1.46953295 C8.02998695,1.46953295 7.79921645,1.43098933 7.60607699,1.35390208 C7.41292368,1.27680094 7.20739284,1.15358635 6.98948445,0.984258312 L6.51888874,0.61023932 C6.23823426,0.384630642 5.96747904,0.226525391 5.70662309,0.135923569 C5.44578098,0.0453078562 5.10932373,0 4.69725135,0 L2.44401995,0 C1.68368736,0 1.08627032,0.223997485 0.651768836,0.671992456 C0.217256279,1.11997354 0,1.78246551 0,2.65946838 L0,4.78436794 Z" id="Shape" />
</svg>
