<?xml version="1.0" encoding="UTF-8"?>
<svg id="icon" width="29px" height="28px" viewBox="0 0 29 28" version="1.1" xmlns="http://www.w3.org/2000/svg">
    <g stroke="none" stroke-width="1">
        <path d="M0,14.3547415 C0,20.6967351 4.15430185,26.0764586 9.91620369,27.9745626 C10.641671,28.1067425 10.9060438,27.6634991 10.9060438,27.2828209 C10.9060438,26.9417966 10.8935818,26.0394483 10.8864606,24.841898 C6.85321833,25.7089984 6.00224071,22.9173581 6.00224071,22.9173581 C5.34264403,21.2589404 4.39197029,20.8174594 4.39197029,20.8174594 C3.07544737,19.9274478 4.49166641,19.9450718 4.49166641,19.9450718 C5.94705178,20.0464098 6.71257559,21.4246059 6.71257559,21.4246059 C8.00595476,23.6179117 10.1066945,22.9843292 10.9327481,22.616869 C11.0644894,21.689847 11.43924,21.0571457 11.8531569,20.6984975 C8.63350625,20.3363244 5.24828877,19.1044074 5.24828877,13.6039595 C5.24828877,12.0371866 5.81353019,10.7550411 6.74106019,9.752236 C6.59151601,9.38918176 6.09392553,7.92903402 6.88348323,5.95338451 C6.88348323,5.95338451 8.10031002,5.56741909 10.870438,7.42498785 C12.026735,7.10599359 13.2675957,6.94737767 14.5004451,6.94120927 C15.7324043,6.94737767 16.9723748,7.10599359 18.1304521,7.42498785 C20.8987998,5.56741909 22.1138463,5.95338451 22.1138463,5.95338451 C22.9051843,7.92903402 22.4075938,9.38918176 22.2589398,9.752236 C23.1882501,10.7550411 23.7490408,12.0371866 23.7490408,13.6039595 C23.7490408,19.1185066 20.3584825,20.3319184 17.1290402,20.6870419 C17.6488843,21.1302853 18.1126493,22.0061977 18.1126493,23.3447399 C18.1126493,25.2639926 18.0948464,26.8122603 18.0948464,27.2828209 C18.0948464,27.6670239 18.3565487,28.1137921 19.0918076,27.9736814 C24.8492587,26.0711714 29,20.6949727 29,14.3547415 C29,6.4265887 22.50729,0 14.4986648,0 C6.49271003,0 0,6.4265887 0,14.3547415 Z"/>
    </g>
</svg>