<?xml version="1.0" encoding="UTF-8"?>
<svg id="icon" width="34px" height="38px" viewBox="0 0 34 38" version="1.1" xmlns="http://www.w3.org/2000/svg">
    <g stroke="none" stroke-width="1">
        <g>
            <path d="M33.0614538,-2.0301221e-15 C28.9029349,0.206495753 23.8282605,2.73975187 20.8902732,6.29087431 C18.2522723,9.33186257 15.917425,14.2957274 16.5261174,18.9602575 C33.0614538,-2.0301221e-15 16.5261174,18.9602575 33.0614538,-2.0301221e-15 Z"/>
            <path d="M16.6239673,18.9602575 C12.4654483,19.1667533 7.39077395,21.7000094 4.45278664,25.2511318 C1.81478581,28.2921201 -0.510842418,33.2957274 0.0978499096,37.9602575 C16.6331864,19 0.088630825,37.920515 16.6239673,18.9602575 Z" transform="translate(8.311984, 28.460258) scale(-1, -1) translate(-8.311984, -28.460258) "/>
            <path d="M33.0614538,-2.0301221e-15 C28.9029349,0.206495753 23.8282605,2.73975187 20.8902732,6.29087431 C18.2522723,9.33186257 15.917425,14.2957274 16.5261174,18.9602575 C33.0614538,-2.0301221e-15 16.5261174,18.9602575 33.0614538,-2.0301221e-15 Z"/>
        </g>
    </g>
</svg>