<?xml version="1.0" encoding="UTF-8"?>
<svg id="icon" width="37px" height="28px" viewBox="0 0 37 28" version="1.1" xmlns="http://www.w3.org/2000/svg">
    <g stroke="none" stroke-width="1">
        <g transform="translate(-838.000000, -327.000000)">
            <g transform="translate(487.000000, 0.000000)">
                <g transform="translate(351.000000, 327.000000)">
                    <path d="M4.59057971,27.9500667 L32.1324754,27.9500667 C34.9461101,27.9500667 36.4123768,26.463993 36.4123768,23.6899884 L36.4123768,4.5889971 C36.4123768,1.79516522 34.9461101,0.309095652 32.1324754,0.309095652 L4.59057971,0.309095652 C1.77694493,0.309095652 0.310686377,1.77536232 0.310686377,4.5889971 L0.310686377,23.6899884 C0.310686377,26.5036232 1.77694493,27.9500667 4.59057971,27.9500667 Z M4.63022609,26.6026945 C2.6884058,26.6026945 1.65804638,25.5921664 1.65804638,23.6107362 L1.65804638,4.64844638 C1.65804638,2.68682319 2.6884058,1.65646377 4.63022609,1.65646377 L11.5850203,1.65646377 L11.5850203,26.6026945 L4.63022609,26.6026945 Z M32.092829,1.65646377 C33.9752,1.65646377 35.0650087,2.68682319 35.0650087,4.64844638 L35.0650087,23.6107362 C35.0650087,25.5921664 33.9752,26.6026945 32.092829,26.6026945 L12.9125855,26.6026945 L12.9125855,1.65646377 L32.092829,1.65646377 Z M8.63268406,7.46208116 C8.92993043,7.46208116 9.18748986,7.20448116 9.18748986,6.90727536 C9.18748986,6.61006957 8.92993043,6.37227246 8.63268406,6.37227246 L4.63022609,6.37227246 C4.31317681,6.37227246 4.05557681,6.61006957 4.05557681,6.90727536 C4.05557681,7.20448116 4.31317681,7.46208116 4.63022609,7.46208116 L8.63268406,7.46208116 Z M8.63268406,11.6626899 C8.92993043,11.6626899 9.18748986,11.4051304 9.18748986,11.1078841 C9.18748986,10.8106783 8.92993043,10.5531188 8.63268406,10.5531188 L4.63022609,10.5531188 C4.31317681,10.5531188 4.05557681,10.8106783 4.05557681,11.1078841 C4.05557681,11.4051304 4.31317681,11.6626899 4.63022609,11.6626899 L8.63268406,11.6626899 Z M8.63268406,15.8435362 C8.92993043,15.8435362 9.18748986,15.5859362 9.18748986,15.2887304 C9.18748986,14.9915246 8.92993043,14.7537275 8.63268406,14.7537275 L4.63022609,14.7537275 C4.31317681,14.7537275 4.05557681,14.9915246 4.05557681,15.2887304 C4.05557681,15.5859362 4.31317681,15.8435362 4.63022609,15.8435362 L8.63268406,15.8435362 Z"/>
                </g>
            </g>
        </g>
    </g>
</svg>